<?xml version="1.0" encoding="utf-8"?>
<!-- Generator: Adobe Illustrator 19.0.0, SVG Export Plug-In . SVG Version: 6.00 Build 0)  -->
<svg version="1.1" id="Capa_1" xmlns="http://www.w3.org/2000/svg" xmlns:xlink="http://www.w3.org/1999/xlink" x="0px" y="0px"
	 viewBox="0 0 700 110" style="enable-background:new 0 0 700 110;" xml:space="preserve">
<style type="text/css">
	.st0{fill:#B10012;}
</style>
<path id="XMLID_2_" class="st0" d="M562.6,78.6h6.6c6.5,0,11-2,13.4-6c2.3-3.8,3.5-9.7,3.5-17.8c0-9.9-1.8-16.5-5.4-19.9
	c-1.4-1.3-3.1-2.3-5.1-2.9c-1.8-0.5-4.1-0.8-6.9-0.8h-6.1V78.6 M535.3,87v-8.4h3.5c2.9,0,4.7-0.5,5.3-1.4c0.4-0.6,0.6-2,0.6-4.2
	V36.9c0-2.3-0.2-3.7-0.7-4.3c-0.7-0.8-2.4-1.2-5.2-1.2h-3.5v-8.4h33.9c9.1,0,16,1,20.7,3c11.4,4.9,17.1,14.6,17.1,29
	c0,11.3-3.5,19.6-10.5,25.1c-3.6,2.8-7.5,4.6-11.6,5.5c-4.6,1-9.8,1.5-15.7,1.5H535.3 M472.3,22.9h37.2v8.4h-4
	c-2.9,0-4.7,0.5-5.3,1.4c-0.4,0.6-0.6,2-0.6,4.2v41.8h5c5.2,0,8.7-0.2,10.4-0.8c3.3-0.9,5.7-3.1,7-6.7c0.7-1.9,1.3-5.3,1.9-10.3h8.4
	V87h-60h-35.4v-8.4h2.7c2.8,0,4.5-0.3,5.2-0.8c0.4-0.3,0.6-0.8,0.6-1.4c0-0.5-0.1-1.2-0.4-2.1l-2.5-7.9h-18.4l-2.4,7.3
	c-0.3,1.1-0.5,2-0.5,2.7c0,0.5,0.1,0.9,0.3,1.2c0.6,0.7,2.2,1,4.8,1h3.2V87h-28.1v-8.4h2.3c2.1,0,3.7-0.4,4.7-1.1
	c0.8-0.6,1.7-2.3,2.7-5.1l16.5-49.5h19.1l15.7,49.8c0.7,2.2,1.5,3.7,2.3,4.6c0.9,0.9,2.3,1.3,4.4,1.3h3h3.5c2.9,0,4.7-0.5,5.3-1.4
	c0.4-0.6,0.6-2,0.6-4.2V36.9c0-2.3-0.2-3.7-0.7-4.3c-0.7-0.8-2.4-1.2-5.2-1.2h-3.5V22.9 M440,58.1l-6.4-20.2L427,58.1H440
	 M353.5,49.4h6.8c4.7,0,7.9-0.6,9.7-1.7c1.9-1.3,2.9-3.6,2.9-7.1c0-3.3-0.9-5.6-2.8-7.2c-1.1-0.9-2.3-1.5-3.7-1.7
	c-1.4-0.2-3.2-0.3-5.4-0.3h-7.5V49.4 M362.9,78.6V87h-36.7v-8.4h3.5c2.9,0,4.7-0.5,5.3-1.4c0.4-0.6,0.6-2,0.6-4.2V36.8
	c0-2.3-0.2-3.7-0.7-4.3c-0.7-0.8-2.4-1.2-5.2-1.2h-3.5v-8.4h42.1c5.7,0,10.1,0.5,13.1,1.6c3.6,1.3,6.3,3.4,8,6.4
	c1.4,2.3,2.1,4.9,2.1,7.6c0,4.6-1.7,8.3-5.2,10.9c-2,1.5-5.2,2.8-9.5,3.8c3.1,0.7,5.4,1.4,6.7,2.2c3.1,1.8,4.6,5.4,4.6,10.6v6.2
	c0,3.3,0.4,5.4,1.1,6.3c0.3,0.4,0.8,0.6,1.5,0.6c0.9,0,1.6-0.3,2.1-1c0.6-0.9,1-2.4,1.1-4.5c0-0.7,0.1-2.2,0.1-4.6h6.4l0,1.5
	c0,4.1-0.3,7.1-1,9.2c-1.1,3.6-3,6-5.8,7.4c-2.1,1.1-4.8,1.6-8,1.6c-5,0-8.9-1.3-11.7-3.9c-1.5-1.4-2.5-3.1-3-4.8
	c-0.6-2-0.8-4.6-0.8-7.7v-6.1c0-3.7-0.6-6.1-1.7-7.1c-1.2-1-3.5-1.5-7.1-1.5h-7.9v15.3c0,2.3,0.2,3.7,0.7,4.3
	c0.7,0.8,2.4,1.2,5.2,1.2H362.9 M256.5,87v-8.4h3.5c2.9,0,4.7-0.5,5.3-1.4c0.4-0.6,0.6-2,0.6-4.1V36.8c0-2.3-0.2-3.7-0.7-4.3
	c-0.7-0.8-2.4-1.2-5.2-1.2h-3.5v-8.4h63.4v24.5h-8.4c-0.7-4.3-1.3-7.1-1.9-8.6c-1.3-3.5-3.7-5.8-7-6.7c-1.8-0.5-5.2-0.8-10.4-0.8
	h-8.4v18.3h1.6c3.7,0,6.1-0.7,7.2-2.1c1-1.2,1.5-3.9,1.7-8.1h8v29.3h-8c-0.2-3.6-0.5-6-0.9-7.2c-0.5-1.5-1.5-2.5-2.8-3
	c-0.9-0.3-2.6-0.5-5.2-0.5h-1.6v20.6h8.6c4.6,0,8.1-0.4,10.5-1.2c3.2-1.1,5.5-3.8,6.9-8c0.6-1.8,1.2-4.7,1.7-8.9h8.4V87H256.5
	 M177.4,87v-8.4h3.5c2.9,0,4.7-0.5,5.3-1.4c0.4-0.6,0.6-2,0.6-4.2V36.9c0-2.3-0.2-3.7-0.7-4.3c-0.7-0.8-2.4-1.2-5.2-1.2h-3.5v-8.4
	h35.1v8.4h-1.8c-2.9,0-4.7,0.5-5.3,1.4c-0.4,0.6-0.6,2-0.6,4.2v12.5h20.8V36.9c0-2.3-0.2-3.7-0.7-4.3c-0.7-0.8-2.4-1.2-5.2-1.2h-1.8
	v-8.4h35.1v8.4h-3.6c-2.9,0-4.7,0.5-5.3,1.4c-0.4,0.6-0.6,2-0.6,4.2v36.2c0,2.3,0.2,3.7,0.7,4.3c0.7,0.8,2.4,1.2,5.2,1.2h3.6V87
	h-35.1v-8.4h1.8c2.9,0,4.7-0.5,5.3-1.4c0.4-0.6,0.6-2,0.6-4.2v-15h-20.8v15c0,2.3,0.2,3.7,0.7,4.3c0.7,0.8,2.4,1.2,5.2,1.2h1.8V87
	H177.4 M84.8,22.9h37.2v8.4h-4c-2.9,0-4.7,0.5-5.3,1.4c-0.4,0.6-0.6,2-0.6,4.2v41.8h5c5.2,0,8.7-0.2,10.4-0.8c3.3-0.9,5.7-3.1,7-6.7
	c0.7-1.9,1.3-5.3,1.9-10.3h8.4V87H84.8v-8.4h3.5c2.9,0,4.7-0.5,5.3-1.4c0.4-0.6,0.6-2,0.6-4.2V36.9c0-2.3-0.2-3.7-0.7-4.3
	c-0.7-0.8-2.4-1.2-5.2-1.2h-3.5V22.9 M17,87v-8.4h3.5c2.9,0,4.7-0.5,5.3-1.4c0.4-0.6,0.6-2,0.6-4.1V36.8c0-2.3-0.2-3.7-0.7-4.3
	c-0.7-0.8-2.4-1.2-5.2-1.2H17v-8.4h63.4v24.5H72c-0.7-4.3-1.3-7.1-1.9-8.6c-1.3-3.5-3.7-5.8-7-6.7c-1.8-0.5-5.2-0.8-10.4-0.8h-8.4
	v18.3H46c3.7,0,6.1-0.7,7.2-2.1c1-1.2,1.5-3.9,1.7-8.1h8v29.3h-8c-0.2-3.6-0.5-6-0.9-7.2c-0.5-1.5-1.5-2.5-2.8-3
	C50.4,58.2,48.6,58,46,58h-1.6v20.6H53c4.6,0,8.1-0.4,10.5-1.2c3.2-1.1,5.5-3.8,6.9-8c0.6-1.8,1.2-4.7,1.7-8.9h8.4V87H17 M647,21
	c11.1,0,19.8,3,26.1,8.9c6.5,6.1,9.8,14.5,9.8,25c0,10.6-3.3,18.9-9.8,25c-6.3,5.9-15,8.9-26,8.9c-11.2,0-19.9-3-26.3-8.9
	c-6.5-6.1-9.8-14.6-9.8-25.5c0-7,1.5-13,4.6-18.1c3.4-5.7,8.2-9.8,14.5-12.4C634.8,22,640.4,21,647,21 M647,29.9
	c-5.4,0-9.3,2.1-11.7,6.2c-1.4,2.3-2.3,4.8-2.7,7.5c-0.5,3.5-0.8,7.1-0.8,10.9c0,6.7,0.5,11.7,1.5,14.9c2.2,7.1,6.8,10.7,13.7,10.7
	c5.3,0,9.2-2.1,11.6-6.2c1.3-2.3,2.2-4.8,2.7-7.6c0.5-3.4,0.8-7.2,0.8-11.3c0-6.4-0.5-11.2-1.5-14.5C658.5,33.4,653.9,29.9,647,29.9
	"/>
</svg>
